# Blender v3.0.1 OBJ File: 'picture8.blend'
# www.blender.org
mtllib picture8.mtl
o picture_blank_Grid
v -0.829397 3.168216 0.018079
v -0.829396 0.652946 0.018079
v -0.683384 3.022204 -0.018079
v -0.683384 0.798958 -0.018079
v 0.683384 3.022204 -0.018079
v 0.683384 0.798959 -0.018079
v 0.829396 3.168216 0.018079
v 0.829396 0.652946 0.018079
vt 0.136972 0.496722
vt 0.856093 0.496722
vt 0.856093 0.893320
vt 0.136972 0.893320
vt 0.125508 0.357631
vt 0.125508 0.899521
vt 0.000826 0.999595
vt 0.000826 0.248944
vt 0.878604 0.899521
vt 0.997134 0.999595
vt 0.878604 0.357631
vt 0.997134 0.248944
vn -0.0000 -0.0000 1.0000
vn -0.0000 -0.2404 0.9707
vn -0.2404 -0.0000 0.9707
vn -0.0000 0.2404 0.9707
vn 0.2404 0.0000 0.9707
usemtl picture8_texture
s off
f 3/1/1 4/2/1 6/3/1 5/4/1
f 3/5/2 5/6/2 7/7/2 1/8/2
f 6/9/3 8/10/3 7/7/3 5/6/3
f 4/11/4 2/12/4 8/10/4 6/9/4
f 3/5/5 1/8/5 2/12/5 4/11/5
